<svg width="40" height="40" viewBox="0 0 40 40" fill="none" xmlns="http://www.w3.org/2000/svg">
<path d="M22.7328 21.1188L25.8821 24.2615L24.2961 25.8441L21.1467 22.7014V27.2091H18.9043V22.7434L15.743 25.8981L14.157 24.3155L17.3603 21.1188H12.7999V18.8812H17.3169L14.1136 15.6845L15.6997 14.1019L18.9036 17.2992V12.7909H21.1461V17.3418L24.3381 14.1565L25.9242 15.7391L22.7748 18.8819H31.9987C31.4341 12.7784 26.2898 8 20.0264 8C13.3846 8 8 13.3729 8 19.9997C8 26.6265 13.3846 32 20.0264 32C26.2904 32 31.4348 27.2216 32 21.1188H22.7334H22.7328Z" fill="white"/>
</svg>
